# xmcd
#
# Track frame offsets:
#	150
#	20524
#	32496
#	41584
#	53885
#	71440
#	89648
#	102883
#	118803
#	137702
#	152957
#	166432
#	205092
#
# Disc length: 3010 seconds
#
# Revision: 0
# Processed by: cddbd v1.5.2PL0 Copyright (c) Steve Scherf et al.
# Submitted via: audiograbber 1.83.01
#
DISCID=b20bc00d
DTITLE=Leo Ferre - Olympia 73 CD1
DYEAR=1973
DGENRE=Chanson francaise
TTITLE0=Le chien
TTITLE1=Les copains d'la neuille
TTITLE2=Les oiseaux du malheur
TTITLE3=Rotterdam
TTITLE4=La fleur de l'age
TTITLE5=La melancolie
TTITLE6=Le crachat
TTITLE7=Les souvenirs
TTITLE8=Vitrines
TTITLE9=L'oppression
TTITLE10=Vingt ans
TTITLE11=Les amants tristes
TTITLE12=Avec le temps
EXTD=
EXTT0=
EXTT1=
EXTT2=
EXTT3=
EXTT4=
EXTT5=
EXTT6=
EXTT7=
EXTT8=
EXTT9=
EXTT10=
EXTT11=
EXTT12=
PLAYORDER=
